<?xml version="1.0" encoding="utf-8"?>
<!-- Generator: Adobe Illustrator 25.0.0, SVG Export Plug-In . SVG Version: 6.00 Build 0)  -->
<svg version="1.1" id="圖層_1" xmlns="http://www.w3.org/2000/svg" xmlns:xlink="http://www.w3.org/1999/xlink" x="0px" y="0px"
	 viewBox="0 0 319.66 359.49" style="enable-background:new 0 0 319.66 359.49;" xml:space="preserve">
<style type="text/css">
	.st0{fill:#FFFFFF;}
</style>
<path d="M100.35,152.97c-7.91,8.13-17.25,12.58-28.14,13.14c-27.74,1.45-46.2-26.73-33.46-51.75c5.87-11.52,13.5-22.14,20.37-33.15
	c2.73-4.38,5.65-8.64,8.3-13.05c2.69-4.48,6.79-6.3,11.71-6.31c55.14-0.05,110.27-0.04,165.41-0.01c5.14,0,9.24,1.96,12.12,6.54
	c8.68,13.81,17.71,27.41,26.24,41.31c10.15,16.52,7.65,36.4-5.6,47.83c-13.86,11.96-36.81,11.52-50.31-1.34
	c-3.16-3.01-4.85-3.02-8.02-0.06c-14.49,13.53-39.12,13.24-53.78-0.4c-1.86-1.73-3.07-2.98-5.73-0.72
	c-17.72,15.07-38.73,14.91-56.67-0.2C102.17,154.27,101.49,153.82,100.35,152.97z M267.66,129.42c-0.64-1.77-1.11-4.31-2.37-6.37
	c-7.35-12.09-14.77-24.15-22.49-36.01c-1.1-1.69-3.97-3.17-6.02-3.18c-49.83-0.18-99.66-0.16-149.49-0.04
	c-1.89,0-4.65,0.84-5.54,2.23c-8.09,12.6-15.98,25.34-23.67,38.19c-3.34,5.58-1.66,11.05,2,15.84c3.56,4.66,8.69,5.8,13.93,3.86
	c3.94-1.46,7.93-3.59,11-6.4c9.56-8.74,22.07-8.95,31.28,0.03c9.75,9.51,19.99,9.52,29.75,0.03c9.11-8.85,22.13-8.84,31.37-0.07
	c1.92,1.82,3.94,3.69,6.25,4.89c7.88,4.11,15.96,2.6,22.86-3.95c10.38-9.85,22.45-10,32.97-0.44c1.23,1.12,2.37,2.44,3.79,3.23
	c5.39,2.98,11.03,5.08,17.05,1.83C265.41,140.34,266.92,135.45,267.66,129.42z"/>
<path d="M57.4,181.64c7.5,0,13.96,0,21.23,0c0,5.88,0,11.47,0,17.06c0,5,0.24,10.02-0.07,15c-0.28,4.66,1.55,5.94,6.08,5.92
	c36.16-0.16,72.33-0.09,108.5-0.09c15.5,0,31-0.12,46.5,0.08c4.16,0.05,5.54-1.36,5.47-5.46c-0.2-10.64-0.07-21.28-0.07-32.45
	c7.07,0,13.83,0,21.31,0c0.07,1.24,0.24,2.97,0.24,4.7c0.02,27.67,0.05,55.34,0,83.01c-0.03,19.44-12.56,31.75-31.99,31.74
	c-48.33-0.04-96.66-0.03-144.99-0.01c-19.85,0.01-32.19-12.19-32.2-31.98c-0.02-27.17,0-54.34,0-81.51
	C57.4,185.7,57.4,183.75,57.4,181.64z M162.12,241.42c-25.98,0-51.97,0-77.95,0c-2.68,0-5.57-0.48-5.53,3.69
	c0.07,8.33-0.24,16.67,0.14,24.98c0.33,7.09,3.1,9.43,10.18,9.44c48.8,0.03,97.61,0.03,146.41,0c6.59,0,9.48-2.83,9.6-9.4
	c0.15-7.83-0.14-15.67,0.12-23.49c0.14-4.22-1.46-5.32-5.53-5.29C213.76,241.5,187.94,241.42,162.12,241.42z"/>
<path class="st0" d="M267.66,129.42c-0.74,6.03-2.25,10.92-7.33,13.66c-6.02,3.25-11.65,1.15-17.05-1.83
	c-1.42-0.79-2.56-2.11-3.79-3.23c-10.52-9.57-22.59-9.41-32.97,0.44c-6.91,6.55-14.98,8.07-22.86,3.95
	c-2.31-1.21-4.34-3.07-6.25-4.89c-9.24-8.76-22.26-8.77-31.37,0.07c-9.77,9.49-20,9.48-29.75-0.03c-9.22-8.98-21.72-8.77-31.28-0.03
	c-3.07,2.81-7.06,4.95-11,6.4c-5.24,1.94-10.37,0.8-13.93-3.86c-3.65-4.79-5.34-10.26-2-15.84c7.7-12.85,15.58-25.59,23.67-38.19
	c0.89-1.39,3.65-2.23,5.54-2.23c49.83-0.12,99.66-0.13,149.49,0.04c2.05,0.01,4.92,1.48,6.02,3.18
	c7.72,11.86,15.14,23.92,22.49,36.01C266.54,125.11,267.02,127.65,267.66,129.42z"/>
<path class="st0" d="M162.12,241.42c25.82,0,51.64,0.08,77.45-0.08c4.06-0.03,5.67,1.07,5.53,5.29c-0.26,7.82,0.03,15.66-0.12,23.49
	c-0.12,6.58-3.02,9.4-9.6,9.4c-48.8,0.04-97.61,0.04-146.41,0c-7.08,0-9.86-2.35-10.18-9.44c-0.38-8.31-0.08-16.66-0.14-24.98
	c-0.03-4.17,2.85-3.69,5.53-3.69C110.16,241.42,136.14,241.42,162.12,241.42z"/>
</svg>
