<?xml version="1.0" encoding="utf-8"?>
<!-- Generator: Adobe Illustrator 25.0.0, SVG Export Plug-In . SVG Version: 6.00 Build 0)  -->
<svg version="1.1" id="圖層_1" xmlns="http://www.w3.org/2000/svg" xmlns:xlink="http://www.w3.org/1999/xlink" x="0px" y="0px"
	 viewBox="0 0 35 24" style="enable-background:new 0 0 35 24;" xml:space="preserve">
<style type="text/css">
	.st0{fill-rule:evenodd;clip-rule:evenodd;fill:#00C300;}
</style>
<g>
	<path class="st0" d="M2,0C0.9,0,0,0.9,0,2l0,20c0,1.1,0.9,2,2,2h3c0.9,0,1.7-0.6,1.9-1.5l2-7.5H13c1.1,0,2-0.9,2-2V2
		c0-1.1-0.9-2-2-2L2,0z M22,0c-1.1,0-2,0.9-2,2v20c0,1.1,0.9,2,2,2h3c0.9,0,1.7-0.6,1.9-1.5l2-7.5H33c1.1,0,2-0.9,2-2V2
		c0-1.1-0.9-2-2-2L22,0z"/>
</g>
</svg>
